<mxfile host="app.diagrams.net" agent="Mozilla/5.0 (Windows NT 10.0; Win64; x64) AppleWebKit/537.36 (KHTML, like Gecko) Chrome/133.0.0.0 Safari/537.36 Edg/133.0.0.0" version="26.0.16">
  <diagram name="第 1 页" id="dxMBI3Bt_J9zHLQB18-X">
    <mxGraphModel dx="3668" dy="2044" grid="1" gridSize="10" guides="1" tooltips="1" connect="1" arrows="1" fold="1" page="1" pageScale="1" pageWidth="827" pageHeight="1169" math="0" shadow="0">
      <root>
        <mxCell id="0" />
        <mxCell id="1" parent="0" />
        <mxCell id="MSeL3s_0p4WkC4J9_sGm-1" value="" style="edgeStyle=orthogonalEdgeStyle;rounded=0;orthogonalLoop=1;jettySize=auto;html=1;" edge="1" parent="1" source="MSeL3s_0p4WkC4J9_sGm-2" target="MSeL3s_0p4WkC4J9_sGm-4">
          <mxGeometry relative="1" as="geometry" />
        </mxCell>
        <mxCell id="MSeL3s_0p4WkC4J9_sGm-2" value="开始执行远程控制数据通信子线程" style="rounded=1;whiteSpace=wrap;html=1;" vertex="1" parent="1">
          <mxGeometry x="367.5" y="211" width="105" height="60" as="geometry" />
        </mxCell>
        <mxCell id="MSeL3s_0p4WkC4J9_sGm-3" value="" style="edgeStyle=orthogonalEdgeStyle;rounded=0;orthogonalLoop=1;jettySize=auto;html=1;entryX=0.5;entryY=0;entryDx=0;entryDy=0;" edge="1" parent="1" source="MSeL3s_0p4WkC4J9_sGm-4" target="MSeL3s_0p4WkC4J9_sGm-6">
          <mxGeometry relative="1" as="geometry">
            <mxPoint x="420" y="397" as="targetPoint" />
          </mxGeometry>
        </mxCell>
        <mxCell id="MSeL3s_0p4WkC4J9_sGm-4" value="执行线程内全局参数初始化函数" style="rounded=0;whiteSpace=wrap;html=1;" vertex="1" parent="1">
          <mxGeometry x="360" y="295" width="120" height="39" as="geometry" />
        </mxCell>
        <mxCell id="MSeL3s_0p4WkC4J9_sGm-5" value="" style="edgeStyle=orthogonalEdgeStyle;rounded=0;orthogonalLoop=1;jettySize=auto;html=1;" edge="1" parent="1" source="MSeL3s_0p4WkC4J9_sGm-6" target="MSeL3s_0p4WkC4J9_sGm-33">
          <mxGeometry relative="1" as="geometry" />
        </mxCell>
        <mxCell id="MSeL3s_0p4WkC4J9_sGm-6" value="执行界面初始化函数" style="rounded=0;whiteSpace=wrap;html=1;" vertex="1" parent="1">
          <mxGeometry x="360" y="361" width="120" height="33" as="geometry" />
        </mxCell>
        <mxCell id="MSeL3s_0p4WkC4J9_sGm-7" value="" style="edgeStyle=orthogonalEdgeStyle;rounded=0;orthogonalLoop=1;jettySize=auto;html=1;" edge="1" parent="1" source="MSeL3s_0p4WkC4J9_sGm-8" target="MSeL3s_0p4WkC4J9_sGm-42">
          <mxGeometry relative="1" as="geometry" />
        </mxCell>
        <mxCell id="MSeL3s_0p4WkC4J9_sGm-8" value="开始执行远程图像通信线程" style="rounded=1;whiteSpace=wrap;html=1;" vertex="1" parent="1">
          <mxGeometry x="601" y="211" width="90" height="60" as="geometry" />
        </mxCell>
        <mxCell id="MSeL3s_0p4WkC4J9_sGm-9" value="" style="edgeStyle=orthogonalEdgeStyle;rounded=0;orthogonalLoop=1;jettySize=auto;html=1;" edge="1" parent="1" source="MSeL3s_0p4WkC4J9_sGm-10" target="MSeL3s_0p4WkC4J9_sGm-12">
          <mxGeometry relative="1" as="geometry" />
        </mxCell>
        <mxCell id="MSeL3s_0p4WkC4J9_sGm-10" value="开始执行远程遥控线程" style="rounded=1;whiteSpace=wrap;html=1;" vertex="1" parent="1">
          <mxGeometry x="831" y="210" width="90" height="60" as="geometry" />
        </mxCell>
        <mxCell id="MSeL3s_0p4WkC4J9_sGm-11" value="" style="edgeStyle=orthogonalEdgeStyle;rounded=0;orthogonalLoop=1;jettySize=auto;html=1;" edge="1" parent="1" source="MSeL3s_0p4WkC4J9_sGm-12" target="MSeL3s_0p4WkC4J9_sGm-14">
          <mxGeometry relative="1" as="geometry" />
        </mxCell>
        <mxCell id="MSeL3s_0p4WkC4J9_sGm-12" value="执行线程内全局参数初始化函数" style="rounded=0;whiteSpace=wrap;html=1;" vertex="1" parent="1">
          <mxGeometry x="816" y="293" width="120" height="40" as="geometry" />
        </mxCell>
        <mxCell id="MSeL3s_0p4WkC4J9_sGm-13" value="" style="edgeStyle=orthogonalEdgeStyle;rounded=0;orthogonalLoop=1;jettySize=auto;html=1;" edge="1" parent="1" source="MSeL3s_0p4WkC4J9_sGm-14" target="MSeL3s_0p4WkC4J9_sGm-57">
          <mxGeometry relative="1" as="geometry" />
        </mxCell>
        <mxCell id="MSeL3s_0p4WkC4J9_sGm-14" value="执行界面初始化函数" style="rounded=0;whiteSpace=wrap;html=1;" vertex="1" parent="1">
          <mxGeometry x="816" y="356" width="120" height="31" as="geometry" />
        </mxCell>
        <mxCell id="MSeL3s_0p4WkC4J9_sGm-15" value="开始执行控制算法线程" style="rounded=1;whiteSpace=wrap;html=1;" vertex="1" parent="1">
          <mxGeometry x="1076" y="210" width="90" height="60" as="geometry" />
        </mxCell>
        <mxCell id="MSeL3s_0p4WkC4J9_sGm-16" value="开始运行SRUSV控制主线程" style="rounded=1;whiteSpace=wrap;html=1;" vertex="1" parent="1">
          <mxGeometry x="76" y="210" width="100" height="60" as="geometry" />
        </mxCell>
        <mxCell id="MSeL3s_0p4WkC4J9_sGm-17" value="开始执行远程控制数据通信线程" style="rounded=1;whiteSpace=wrap;html=1;" vertex="1" parent="1">
          <mxGeometry x="81" y="403" width="90" height="60" as="geometry" />
        </mxCell>
        <mxCell id="MSeL3s_0p4WkC4J9_sGm-18" value="是否执行控制算法？" style="rhombus;whiteSpace=wrap;html=1;" vertex="1" parent="1">
          <mxGeometry x="31" y="303" width="190" height="60" as="geometry" />
        </mxCell>
        <mxCell id="MSeL3s_0p4WkC4J9_sGm-19" value="" style="endArrow=classic;html=1;rounded=0;exitX=0.5;exitY=1;exitDx=0;exitDy=0;" edge="1" parent="1" source="MSeL3s_0p4WkC4J9_sGm-18" target="MSeL3s_0p4WkC4J9_sGm-17">
          <mxGeometry width="50" height="50" relative="1" as="geometry">
            <mxPoint x="411" y="733" as="sourcePoint" />
            <mxPoint x="461" y="683" as="targetPoint" />
          </mxGeometry>
        </mxCell>
        <mxCell id="MSeL3s_0p4WkC4J9_sGm-20" value="" style="endArrow=classic;html=1;rounded=0;edgeStyle=elbowEdgeStyle;entryX=1;entryY=0.5;entryDx=0;entryDy=0;" edge="1" parent="1" target="MSeL3s_0p4WkC4J9_sGm-31">
          <mxGeometry width="50" height="50" relative="1" as="geometry">
            <mxPoint x="261" y="561" as="sourcePoint" />
            <mxPoint x="181" y="703" as="targetPoint" />
            <Array as="points">
              <mxPoint x="261" y="711" />
            </Array>
          </mxGeometry>
        </mxCell>
        <mxCell id="MSeL3s_0p4WkC4J9_sGm-21" value="是" style="text;html=1;align=center;verticalAlign=middle;whiteSpace=wrap;rounded=0;" vertex="1" parent="1">
          <mxGeometry x="432.5" y="623" width="40" height="20" as="geometry" />
        </mxCell>
        <mxCell id="MSeL3s_0p4WkC4J9_sGm-22" value="否" style="text;html=1;align=center;verticalAlign=middle;whiteSpace=wrap;rounded=0;" vertex="1" parent="1">
          <mxGeometry x="221" y="313" width="40" height="20" as="geometry" />
        </mxCell>
        <mxCell id="MSeL3s_0p4WkC4J9_sGm-23" value="" style="endArrow=classic;html=1;rounded=0;exitX=0.5;exitY=1;exitDx=0;exitDy=0;" edge="1" parent="1" source="MSeL3s_0p4WkC4J9_sGm-17" target="MSeL3s_0p4WkC4J9_sGm-28">
          <mxGeometry width="50" height="50" relative="1" as="geometry">
            <mxPoint x="-99" y="563" as="sourcePoint" />
            <mxPoint x="126" y="503" as="targetPoint" />
          </mxGeometry>
        </mxCell>
        <mxCell id="MSeL3s_0p4WkC4J9_sGm-24" value="" style="endArrow=classic;html=1;rounded=0;edgeStyle=orthogonalEdgeStyle;exitX=1;exitY=0.5;exitDx=0;exitDy=0;entryX=0.5;entryY=0;entryDx=0;entryDy=0;" edge="1" parent="1" source="MSeL3s_0p4WkC4J9_sGm-18" target="MSeL3s_0p4WkC4J9_sGm-25">
          <mxGeometry width="50" height="50" relative="1" as="geometry">
            <mxPoint x="291" y="623" as="sourcePoint" />
            <mxPoint x="241" y="513" as="targetPoint" />
          </mxGeometry>
        </mxCell>
        <mxCell id="MSeL3s_0p4WkC4J9_sGm-25" value="开始执行远程遥控线程" style="rounded=1;whiteSpace=wrap;html=1;" vertex="1" parent="1">
          <mxGeometry x="219" y="502" width="90" height="60" as="geometry" />
        </mxCell>
        <mxCell id="MSeL3s_0p4WkC4J9_sGm-26" value="" style="endArrow=classic;html=1;rounded=0;exitX=0.5;exitY=1;exitDx=0;exitDy=0;entryX=0.5;entryY=0;entryDx=0;entryDy=0;" edge="1" parent="1" source="MSeL3s_0p4WkC4J9_sGm-16" target="MSeL3s_0p4WkC4J9_sGm-18">
          <mxGeometry width="50" height="50" relative="1" as="geometry">
            <mxPoint x="761" y="483" as="sourcePoint" />
            <mxPoint x="811" y="433" as="targetPoint" />
          </mxGeometry>
        </mxCell>
        <mxCell id="MSeL3s_0p4WkC4J9_sGm-27" value="" style="edgeStyle=orthogonalEdgeStyle;rounded=0;orthogonalLoop=1;jettySize=auto;html=1;" edge="1" parent="1" source="MSeL3s_0p4WkC4J9_sGm-28" target="MSeL3s_0p4WkC4J9_sGm-30">
          <mxGeometry relative="1" as="geometry" />
        </mxCell>
        <mxCell id="MSeL3s_0p4WkC4J9_sGm-28" value="开始执行控制算法线程" style="rounded=1;whiteSpace=wrap;html=1;" vertex="1" parent="1">
          <mxGeometry x="81" y="502" width="90" height="60" as="geometry" />
        </mxCell>
        <mxCell id="MSeL3s_0p4WkC4J9_sGm-29" value="" style="edgeStyle=orthogonalEdgeStyle;rounded=0;orthogonalLoop=1;jettySize=auto;html=1;" edge="1" parent="1" source="MSeL3s_0p4WkC4J9_sGm-30" target="MSeL3s_0p4WkC4J9_sGm-31">
          <mxGeometry relative="1" as="geometry" />
        </mxCell>
        <mxCell id="MSeL3s_0p4WkC4J9_sGm-30" value="开始执行远程图像通信线程" style="rounded=1;whiteSpace=wrap;html=1;" vertex="1" parent="1">
          <mxGeometry x="81" y="593" width="90" height="60" as="geometry" />
        </mxCell>
        <mxCell id="MSeL3s_0p4WkC4J9_sGm-31" value="结束主线程" style="rounded=1;whiteSpace=wrap;html=1;" vertex="1" parent="1">
          <mxGeometry x="81" y="683" width="90" height="60" as="geometry" />
        </mxCell>
        <mxCell id="MSeL3s_0p4WkC4J9_sGm-32" value="" style="edgeStyle=orthogonalEdgeStyle;rounded=0;orthogonalLoop=1;jettySize=auto;html=1;" edge="1" parent="1" source="MSeL3s_0p4WkC4J9_sGm-33" target="MSeL3s_0p4WkC4J9_sGm-34">
          <mxGeometry relative="1" as="geometry" />
        </mxCell>
        <mxCell id="MSeL3s_0p4WkC4J9_sGm-33" value="定时器触发子线程" style="rounded=0;whiteSpace=wrap;html=1;" vertex="1" parent="1">
          <mxGeometry x="360" y="419" width="120" height="29" as="geometry" />
        </mxCell>
        <mxCell id="MSeL3s_0p4WkC4J9_sGm-34" value="调用Mavlink数据接收程序（接收SRUSV运行及姿态数据）" style="rounded=0;whiteSpace=wrap;html=1;" vertex="1" parent="1">
          <mxGeometry x="360" y="476" width="120" height="60" as="geometry" />
        </mxCell>
        <mxCell id="MSeL3s_0p4WkC4J9_sGm-35" value="" style="edgeStyle=orthogonalEdgeStyle;rounded=0;orthogonalLoop=1;jettySize=auto;html=1;" edge="1" parent="1" source="MSeL3s_0p4WkC4J9_sGm-36" target="MSeL3s_0p4WkC4J9_sGm-40">
          <mxGeometry relative="1" as="geometry" />
        </mxCell>
        <mxCell id="MSeL3s_0p4WkC4J9_sGm-36" value="调用Mavlink数据发送程序（发送SRUSV控制指令）" style="rounded=0;whiteSpace=wrap;html=1;" vertex="1" parent="1">
          <mxGeometry x="350" y="647" width="141" height="40" as="geometry" />
        </mxCell>
        <mxCell id="MSeL3s_0p4WkC4J9_sGm-37" value="" style="edgeStyle=orthogonalEdgeStyle;rounded=0;orthogonalLoop=1;jettySize=auto;html=1;" edge="1" parent="1" source="MSeL3s_0p4WkC4J9_sGm-38" target="MSeL3s_0p4WkC4J9_sGm-36">
          <mxGeometry relative="1" as="geometry" />
        </mxCell>
        <mxCell id="MSeL3s_0p4WkC4J9_sGm-38" value="是否执行控制算法？" style="rhombus;whiteSpace=wrap;html=1;" vertex="1" parent="1">
          <mxGeometry x="325" y="559" width="190" height="60" as="geometry" />
        </mxCell>
        <mxCell id="MSeL3s_0p4WkC4J9_sGm-39" value="" style="endArrow=classic;html=1;rounded=0;exitX=0.5;exitY=1;exitDx=0;exitDy=0;" edge="1" parent="1" source="MSeL3s_0p4WkC4J9_sGm-34" target="MSeL3s_0p4WkC4J9_sGm-38">
          <mxGeometry width="50" height="50" relative="1" as="geometry">
            <mxPoint x="641" y="713" as="sourcePoint" />
            <mxPoint x="691" y="663" as="targetPoint" />
          </mxGeometry>
        </mxCell>
        <mxCell id="MSeL3s_0p4WkC4J9_sGm-40" value="结束子线程" style="rounded=1;whiteSpace=wrap;html=1;" vertex="1" parent="1">
          <mxGeometry x="375" y="715" width="90" height="35" as="geometry" />
        </mxCell>
        <mxCell id="MSeL3s_0p4WkC4J9_sGm-41" value="执行线程内全局参数初始化函数" style="rounded=0;whiteSpace=wrap;html=1;" vertex="1" parent="1">
          <mxGeometry x="586" y="301.5" width="120" height="39" as="geometry" />
        </mxCell>
        <mxCell id="MSeL3s_0p4WkC4J9_sGm-42" value="执行界面初始化函数" style="rounded=0;whiteSpace=wrap;html=1;" vertex="1" parent="1">
          <mxGeometry x="586" y="373" width="120" height="33" as="geometry" />
        </mxCell>
        <mxCell id="MSeL3s_0p4WkC4J9_sGm-43" value="" style="edgeStyle=orthogonalEdgeStyle;rounded=0;orthogonalLoop=1;jettySize=auto;html=1;" edge="1" parent="1" source="MSeL3s_0p4WkC4J9_sGm-44" target="MSeL3s_0p4WkC4J9_sGm-46">
          <mxGeometry relative="1" as="geometry" />
        </mxCell>
        <mxCell id="MSeL3s_0p4WkC4J9_sGm-44" value="定时器触发子线程" style="rounded=0;whiteSpace=wrap;html=1;" vertex="1" parent="1">
          <mxGeometry x="586" y="443" width="120" height="29" as="geometry" />
        </mxCell>
        <mxCell id="MSeL3s_0p4WkC4J9_sGm-45" value="" style="edgeStyle=orthogonalEdgeStyle;rounded=0;orthogonalLoop=1;jettySize=auto;html=1;" edge="1" parent="1" source="MSeL3s_0p4WkC4J9_sGm-46" target="MSeL3s_0p4WkC4J9_sGm-49">
          <mxGeometry relative="1" as="geometry" />
        </mxCell>
        <mxCell id="MSeL3s_0p4WkC4J9_sGm-46" value="调用SDK包执行图像读取程序" style="rounded=0;whiteSpace=wrap;html=1;" vertex="1" parent="1">
          <mxGeometry x="586" y="512" width="120" height="40" as="geometry" />
        </mxCell>
        <mxCell id="MSeL3s_0p4WkC4J9_sGm-47" value="" style="endArrow=classic;html=1;rounded=0;exitX=0.5;exitY=1;exitDx=0;exitDy=0;entryX=0.5;entryY=0;entryDx=0;entryDy=0;" edge="1" parent="1" source="MSeL3s_0p4WkC4J9_sGm-42" target="MSeL3s_0p4WkC4J9_sGm-44">
          <mxGeometry width="50" height="50" relative="1" as="geometry">
            <mxPoint x="501" y="433" as="sourcePoint" />
            <mxPoint x="646" y="413" as="targetPoint" />
          </mxGeometry>
        </mxCell>
        <mxCell id="MSeL3s_0p4WkC4J9_sGm-48" value="" style="edgeStyle=orthogonalEdgeStyle;rounded=0;orthogonalLoop=1;jettySize=auto;html=1;" edge="1" parent="1" source="MSeL3s_0p4WkC4J9_sGm-49" target="MSeL3s_0p4WkC4J9_sGm-50">
          <mxGeometry relative="1" as="geometry" />
        </mxCell>
        <mxCell id="MSeL3s_0p4WkC4J9_sGm-49" value="是否执结束读取图像？" style="rhombus;whiteSpace=wrap;html=1;" vertex="1" parent="1">
          <mxGeometry x="551" y="603" width="190" height="60" as="geometry" />
        </mxCell>
        <mxCell id="MSeL3s_0p4WkC4J9_sGm-50" value="结束子线程" style="rounded=1;whiteSpace=wrap;html=1;" vertex="1" parent="1">
          <mxGeometry x="601" y="713" width="90" height="35" as="geometry" />
        </mxCell>
        <mxCell id="MSeL3s_0p4WkC4J9_sGm-51" value="" style="endArrow=classic;html=1;rounded=0;edgeStyle=elbowEdgeStyle;entryX=1;entryY=0.5;entryDx=0;entryDy=0;exitX=1;exitY=0.5;exitDx=0;exitDy=0;" edge="1" parent="1" source="MSeL3s_0p4WkC4J9_sGm-38" target="MSeL3s_0p4WkC4J9_sGm-40">
          <mxGeometry width="50" height="50" relative="1" as="geometry">
            <mxPoint x="521" y="590" as="sourcePoint" />
            <mxPoint x="541" y="723" as="targetPoint" />
            <Array as="points">
              <mxPoint x="541" y="663" />
            </Array>
          </mxGeometry>
        </mxCell>
        <mxCell id="MSeL3s_0p4WkC4J9_sGm-52" value="" style="endArrow=classic;html=1;rounded=0;edgeStyle=elbowEdgeStyle;exitX=1;exitY=0.5;exitDx=0;exitDy=0;entryX=1;entryY=0.5;entryDx=0;entryDy=0;" edge="1" parent="1" source="MSeL3s_0p4WkC4J9_sGm-49" target="MSeL3s_0p4WkC4J9_sGm-44">
          <mxGeometry width="50" height="50" relative="1" as="geometry">
            <mxPoint x="791" y="633" as="sourcePoint" />
            <mxPoint x="741" y="777" as="targetPoint" />
            <Array as="points">
              <mxPoint x="761" y="583" />
            </Array>
          </mxGeometry>
        </mxCell>
        <mxCell id="MSeL3s_0p4WkC4J9_sGm-53" value="是" style="text;html=1;align=center;verticalAlign=middle;whiteSpace=wrap;rounded=0;" vertex="1" parent="1">
          <mxGeometry x="655" y="673" width="40" height="20" as="geometry" />
        </mxCell>
        <mxCell id="MSeL3s_0p4WkC4J9_sGm-54" value="否" style="text;html=1;align=center;verticalAlign=middle;whiteSpace=wrap;rounded=0;" vertex="1" parent="1">
          <mxGeometry x="731" y="613" width="40" height="20" as="geometry" />
        </mxCell>
        <mxCell id="MSeL3s_0p4WkC4J9_sGm-55" value="否" style="text;html=1;align=center;verticalAlign=middle;whiteSpace=wrap;rounded=0;" vertex="1" parent="1">
          <mxGeometry x="501" y="562" width="40" height="20" as="geometry" />
        </mxCell>
        <mxCell id="MSeL3s_0p4WkC4J9_sGm-56" value="" style="edgeStyle=orthogonalEdgeStyle;rounded=0;orthogonalLoop=1;jettySize=auto;html=1;" edge="1" parent="1" source="MSeL3s_0p4WkC4J9_sGm-57" target="MSeL3s_0p4WkC4J9_sGm-59">
          <mxGeometry relative="1" as="geometry" />
        </mxCell>
        <mxCell id="MSeL3s_0p4WkC4J9_sGm-57" value="定时器触发子线程" style="rounded=0;whiteSpace=wrap;html=1;" vertex="1" parent="1">
          <mxGeometry x="816" y="413" width="120" height="29" as="geometry" />
        </mxCell>
        <mxCell id="MSeL3s_0p4WkC4J9_sGm-58" value="" style="edgeStyle=orthogonalEdgeStyle;rounded=0;orthogonalLoop=1;jettySize=auto;html=1;" edge="1" parent="1" source="MSeL3s_0p4WkC4J9_sGm-59" target="MSeL3s_0p4WkC4J9_sGm-61">
          <mxGeometry relative="1" as="geometry" />
        </mxCell>
        <mxCell id="MSeL3s_0p4WkC4J9_sGm-59" value="执行远程接收遥控信息成程序" style="rounded=0;whiteSpace=wrap;html=1;" vertex="1" parent="1">
          <mxGeometry x="816" y="463" width="120" height="40" as="geometry" />
        </mxCell>
        <mxCell id="MSeL3s_0p4WkC4J9_sGm-60" value="" style="edgeStyle=orthogonalEdgeStyle;rounded=0;orthogonalLoop=1;jettySize=auto;html=1;" edge="1" parent="1" source="MSeL3s_0p4WkC4J9_sGm-61" target="MSeL3s_0p4WkC4J9_sGm-63">
          <mxGeometry relative="1" as="geometry" />
        </mxCell>
        <mxCell id="MSeL3s_0p4WkC4J9_sGm-61" value="向电机输出对应的PWM信号" style="rounded=0;whiteSpace=wrap;html=1;" vertex="1" parent="1">
          <mxGeometry x="816" y="533" width="120" height="40" as="geometry" />
        </mxCell>
        <mxCell id="MSeL3s_0p4WkC4J9_sGm-62" value="" style="edgeStyle=orthogonalEdgeStyle;rounded=0;orthogonalLoop=1;jettySize=auto;html=1;" edge="1" parent="1" source="MSeL3s_0p4WkC4J9_sGm-63" target="MSeL3s_0p4WkC4J9_sGm-64">
          <mxGeometry relative="1" as="geometry" />
        </mxCell>
        <mxCell id="MSeL3s_0p4WkC4J9_sGm-63" value="是否结束远程遥控？" style="rhombus;whiteSpace=wrap;html=1;" vertex="1" parent="1">
          <mxGeometry x="781" y="603" width="190" height="60" as="geometry" />
        </mxCell>
        <mxCell id="MSeL3s_0p4WkC4J9_sGm-64" value="结束子线程" style="rounded=1;whiteSpace=wrap;html=1;" vertex="1" parent="1">
          <mxGeometry x="831" y="708" width="90" height="35" as="geometry" />
        </mxCell>
        <mxCell id="MSeL3s_0p4WkC4J9_sGm-65" value="是" style="text;html=1;align=center;verticalAlign=middle;whiteSpace=wrap;rounded=0;" vertex="1" parent="1">
          <mxGeometry x="1121" y="679" width="40" height="20" as="geometry" />
        </mxCell>
        <mxCell id="MSeL3s_0p4WkC4J9_sGm-66" value="" style="endArrow=classic;html=1;rounded=0;edgeStyle=elbowEdgeStyle;exitX=1;exitY=0.5;exitDx=0;exitDy=0;entryX=1;entryY=0.5;entryDx=0;entryDy=0;" edge="1" parent="1" source="MSeL3s_0p4WkC4J9_sGm-63" target="MSeL3s_0p4WkC4J9_sGm-57">
          <mxGeometry width="50" height="50" relative="1" as="geometry">
            <mxPoint x="986" y="632" as="sourcePoint" />
            <mxPoint x="951" y="531" as="targetPoint" />
            <Array as="points">
              <mxPoint x="1001" y="563" />
            </Array>
          </mxGeometry>
        </mxCell>
        <mxCell id="MSeL3s_0p4WkC4J9_sGm-67" value="否" style="text;html=1;align=center;verticalAlign=middle;whiteSpace=wrap;rounded=0;" vertex="1" parent="1">
          <mxGeometry x="964" y="613" width="40" height="20" as="geometry" />
        </mxCell>
        <mxCell id="MSeL3s_0p4WkC4J9_sGm-68" value="执行线程内全局参数初始化函数" style="rounded=0;whiteSpace=wrap;html=1;" vertex="1" parent="1">
          <mxGeometry x="1061" y="293" width="120" height="40" as="geometry" />
        </mxCell>
        <mxCell id="MSeL3s_0p4WkC4J9_sGm-69" value="执行界面初始化函数" style="rounded=0;whiteSpace=wrap;html=1;" vertex="1" parent="1">
          <mxGeometry x="1061" y="356" width="120" height="31" as="geometry" />
        </mxCell>
        <mxCell id="MSeL3s_0p4WkC4J9_sGm-70" value="定时器触发子线程" style="rounded=0;whiteSpace=wrap;html=1;" vertex="1" parent="1">
          <mxGeometry x="1061" y="413" width="120" height="29" as="geometry" />
        </mxCell>
        <mxCell id="MSeL3s_0p4WkC4J9_sGm-71" value="执行轨迹生成算法函数" style="rounded=0;whiteSpace=wrap;html=1;" vertex="1" parent="1">
          <mxGeometry x="1056" y="462" width="130" height="21" as="geometry" />
        </mxCell>
        <mxCell id="MSeL3s_0p4WkC4J9_sGm-72" value="执行制导算法函数" style="rounded=0;whiteSpace=wrap;html=1;" vertex="1" parent="1">
          <mxGeometry x="1061" y="512" width="120" height="21" as="geometry" />
        </mxCell>
        <mxCell id="MSeL3s_0p4WkC4J9_sGm-73" value="执行控制算法功能函数" style="rounded=0;whiteSpace=wrap;html=1;" vertex="1" parent="1">
          <mxGeometry x="1056" y="560" width="130" height="31" as="geometry" />
        </mxCell>
        <mxCell id="MSeL3s_0p4WkC4J9_sGm-74" value="结束子线程" style="rounded=1;whiteSpace=wrap;html=1;" vertex="1" parent="1">
          <mxGeometry x="1076" y="713" width="90" height="35" as="geometry" />
        </mxCell>
        <mxCell id="MSeL3s_0p4WkC4J9_sGm-75" value="是否控制算法？" style="rhombus;whiteSpace=wrap;html=1;" vertex="1" parent="1">
          <mxGeometry x="1026" y="619" width="190" height="60" as="geometry" />
        </mxCell>
        <mxCell id="MSeL3s_0p4WkC4J9_sGm-76" value="" style="endArrow=classic;html=1;rounded=0;exitX=0.5;exitY=1;exitDx=0;exitDy=0;" edge="1" parent="1" source="MSeL3s_0p4WkC4J9_sGm-15" target="MSeL3s_0p4WkC4J9_sGm-68">
          <mxGeometry width="50" height="50" relative="1" as="geometry">
            <mxPoint x="1311" y="273" as="sourcePoint" />
            <mxPoint x="1361" y="223" as="targetPoint" />
          </mxGeometry>
        </mxCell>
        <mxCell id="MSeL3s_0p4WkC4J9_sGm-77" value="" style="endArrow=classic;html=1;rounded=0;exitX=0.5;exitY=1;exitDx=0;exitDy=0;entryX=0.5;entryY=0;entryDx=0;entryDy=0;" edge="1" parent="1" source="MSeL3s_0p4WkC4J9_sGm-68" target="MSeL3s_0p4WkC4J9_sGm-69">
          <mxGeometry width="50" height="50" relative="1" as="geometry">
            <mxPoint x="1241" y="343" as="sourcePoint" />
            <mxPoint x="1291" y="293" as="targetPoint" />
          </mxGeometry>
        </mxCell>
        <mxCell id="MSeL3s_0p4WkC4J9_sGm-78" value="" style="endArrow=classic;html=1;rounded=0;exitX=0.5;exitY=1;exitDx=0;exitDy=0;" edge="1" parent="1" source="MSeL3s_0p4WkC4J9_sGm-69" target="MSeL3s_0p4WkC4J9_sGm-70">
          <mxGeometry width="50" height="50" relative="1" as="geometry">
            <mxPoint x="1311" y="463" as="sourcePoint" />
            <mxPoint x="1361" y="413" as="targetPoint" />
          </mxGeometry>
        </mxCell>
        <mxCell id="MSeL3s_0p4WkC4J9_sGm-79" value="" style="endArrow=classic;html=1;rounded=0;exitX=0.5;exitY=1;exitDx=0;exitDy=0;" edge="1" parent="1" source="MSeL3s_0p4WkC4J9_sGm-70" target="MSeL3s_0p4WkC4J9_sGm-71">
          <mxGeometry width="50" height="50" relative="1" as="geometry">
            <mxPoint x="1271" y="483" as="sourcePoint" />
            <mxPoint x="1321" y="433" as="targetPoint" />
          </mxGeometry>
        </mxCell>
        <mxCell id="MSeL3s_0p4WkC4J9_sGm-80" value="" style="endArrow=classic;html=1;rounded=0;exitX=0.5;exitY=1;exitDx=0;exitDy=0;" edge="1" parent="1" source="MSeL3s_0p4WkC4J9_sGm-71" target="MSeL3s_0p4WkC4J9_sGm-72">
          <mxGeometry width="50" height="50" relative="1" as="geometry">
            <mxPoint x="1341" y="503" as="sourcePoint" />
            <mxPoint x="1391" y="453" as="targetPoint" />
          </mxGeometry>
        </mxCell>
        <mxCell id="MSeL3s_0p4WkC4J9_sGm-81" value="" style="endArrow=classic;html=1;rounded=0;exitX=0.5;exitY=1;exitDx=0;exitDy=0;" edge="1" parent="1" source="MSeL3s_0p4WkC4J9_sGm-72" target="MSeL3s_0p4WkC4J9_sGm-73">
          <mxGeometry width="50" height="50" relative="1" as="geometry">
            <mxPoint x="1251" y="543" as="sourcePoint" />
            <mxPoint x="1301" y="493" as="targetPoint" />
          </mxGeometry>
        </mxCell>
        <mxCell id="MSeL3s_0p4WkC4J9_sGm-82" value="" style="endArrow=classic;html=1;rounded=0;exitX=0.5;exitY=1;exitDx=0;exitDy=0;entryX=0.5;entryY=0;entryDx=0;entryDy=0;" edge="1" parent="1" source="MSeL3s_0p4WkC4J9_sGm-73" target="MSeL3s_0p4WkC4J9_sGm-75">
          <mxGeometry width="50" height="50" relative="1" as="geometry">
            <mxPoint x="1191" y="603" as="sourcePoint" />
            <mxPoint x="1241" y="553" as="targetPoint" />
          </mxGeometry>
        </mxCell>
        <mxCell id="MSeL3s_0p4WkC4J9_sGm-83" value="" style="endArrow=classic;html=1;rounded=0;exitX=0.5;exitY=1;exitDx=0;exitDy=0;entryX=0.5;entryY=0;entryDx=0;entryDy=0;" edge="1" parent="1" source="MSeL3s_0p4WkC4J9_sGm-75" target="MSeL3s_0p4WkC4J9_sGm-74">
          <mxGeometry width="50" height="50" relative="1" as="geometry">
            <mxPoint x="1211" y="703" as="sourcePoint" />
            <mxPoint x="1261" y="653" as="targetPoint" />
          </mxGeometry>
        </mxCell>
        <mxCell id="MSeL3s_0p4WkC4J9_sGm-84" value="" style="endArrow=classic;html=1;rounded=0;edgeStyle=elbowEdgeStyle;" edge="1" parent="1" source="MSeL3s_0p4WkC4J9_sGm-75" target="MSeL3s_0p4WkC4J9_sGm-70">
          <mxGeometry width="50" height="50" relative="1" as="geometry">
            <mxPoint x="1251" y="633" as="sourcePoint" />
            <mxPoint x="1216" y="483" as="targetPoint" />
            <Array as="points">
              <mxPoint x="1241" y="533" />
            </Array>
          </mxGeometry>
        </mxCell>
        <mxCell id="MSeL3s_0p4WkC4J9_sGm-85" value="否" style="text;html=1;align=center;verticalAlign=middle;whiteSpace=wrap;rounded=0;" vertex="1" parent="1">
          <mxGeometry x="1201" y="626" width="40" height="20" as="geometry" />
        </mxCell>
      </root>
    </mxGraphModel>
  </diagram>
</mxfile>
